<svg width="120" height="113" viewBox="0 0 120 113" fill="none" xmlns="http://www.w3.org/2000/svg">
<path d="M45.7407 54.3839C58.1991 54.3839 68.2986 44.0606 68.2986 31.3263C68.2986 18.5919 58.1991 8.26868 45.7407 8.26868C33.2822 8.26868 23.1827 18.5919 23.1827 31.3263C23.1827 44.0606 33.2822 54.3839 45.7407 54.3839Z" fill="#FFB9B9"/>
<path d="M36.9285 48.9797C36.9285 48.9797 39.7483 62.6702 39.7483 64.1112C39.7483 65.5523 53.1421 72.0373 53.1421 72.0373L65.126 69.8756L69.3557 56.9057C69.3557 56.9057 62.3063 46.0975 62.3063 41.7742L36.9285 48.9797Z" fill="#FFB9B9"/>
<path d="M26.1784 12.7496C26.1784 12.7496 33.3405 -3.11195 47.0678 0.5484C60.7952 4.20875 68.5541 9.69924 69.1509 15.1897C69.7478 20.6802 68.8525 28.9161 68.8525 28.9161C68.8525 28.9161 67.3604 17.63 57.8109 20.0702C48.2615 22.5104 33.3405 20.6803 33.3405 20.6803L30.9532 42.6423C30.9532 42.6423 28.2673 38.677 25.2831 41.1172C22.2989 43.5574 16.629 17.63 26.1784 12.7496Z" fill="#2F2E41"/>
<path d="M117.289 107.345L111.654 81.401C108.828 72.7529 101.785 65.5537 101.785 65.5537L67.0211 53.057H67.0122C66.9445 56.1981 65.9086 59.2371 64.0522 61.7412C62.1957 64.2452 59.6135 66.0865 56.6733 67.0026C46.0952 70.5977 38.8128 58.4813 38.8128 58.4813L9.42637 81.401C9.42637 81.401 0.265786 89.3337 0.974535 104.466L0 112.887H120L117.289 107.345Z" fill="#42428B"/>
</svg>
