<svg width="95" height="108" viewBox="0 0 95 108" fill="none" xmlns="http://www.w3.org/2000/svg">
<path d="M73.0991 107.203H26.5379L23.9732 81.3461L23.8203 79.7732L23.5053 76.6549L22.2184 63.6209L20.6076 77.6208L17.2059 107.203H8.74683L9.06177 97.9951L9.37677 88.6588L9.51172 84.8967L11.2485 33.717C11.1154 25.6066 13.626 17.6815 18.3848 11.1902C21.0269 7.67438 24.4361 4.83802 28.3405 2.90726C32.2449 0.976504 36.5366 0.00475152 40.8735 0.0694364C45.2982 0.0546969 49.6662 1.08763 53.635 3.08725C57.6038 5.08688 61.0656 7.99887 63.7491 11.595C68.6675 18.1513 71.2999 26.2004 71.2273 34.4621L72.0282 65.4422L73.0991 107.203Z" fill="#2F2E41"/>
<path d="M40.8739 52.0316C52.1848 52.0316 61.3541 42.6593 61.3541 31.0979C61.3541 19.5366 52.1848 10.1643 40.8739 10.1643C29.5631 10.1643 20.3938 19.5366 20.3938 31.0979C20.3938 42.6593 29.5631 52.0316 40.8739 52.0316Z" fill="#FBBEBE"/>
<path d="M30.6342 46.0506C30.6342 46.0506 36.4856 66.2366 30.6342 72.2176C24.7827 78.1987 23.3198 80.4416 23.3198 80.4416L40.1428 103.618L69.4001 66.9842C69.4001 66.9842 48.92 61.0032 54.04 44.5553L30.6342 46.0506Z" fill="#FBBEBE"/>
<path d="M95 102.123C95 102.123 92.0742 83.4321 89.8799 75.9558C87.6856 68.4795 85.4913 68.4795 85.4913 68.4795H85.491L85.4911 68.4777C82.9083 65.8377 76.699 65.3686 72.0285 65.4422C68.7528 65.479 66.2331 65.7733 66.2331 65.7733L40.1448 93.9019L27.0061 76.0479V76.0387C25.8231 76.1327 24.6512 76.339 23.5055 76.655C22.52 76.9116 21.5519 77.2343 20.6078 77.6208C16.5389 79.3981 12.7887 81.8572 9.51196 84.8967H9.503C7.6132 86.6352 6.49729 87.9138 6.49729 87.9138C3.60361 94.0627 1.42306 100.536 0 107.203H83.6012L83.7902 103.358V103.35L95 102.123Z" fill="#925EB0"/>
<path d="M23.6854 27.7336C36.9127 20.4444 42.3462 20.7531 58.7941 27.7336L63.1827 16.8046C63.1804 14.7468 62.3796 12.7739 60.956 11.3188C59.5325 9.86366 57.6023 9.04516 55.5891 9.04285H26.159C24.1457 9.04516 22.2156 9.86366 20.792 11.3188C19.3684 12.7739 18.5677 14.7468 18.5654 16.8046L23.6854 27.7336Z" fill="#2F2E41"/>
</svg>
