<svg width="32" height="32" viewBox="0 0 32 32" fill="none" xmlns="http://www.w3.org/2000/svg">
<path d="M12 17.3333C14.9455 17.3333 17.3334 14.9455 17.3334 12C17.3334 9.05444 14.9455 6.66663 12 6.66663C9.0545 6.66663 6.66669 9.05444 6.66669 12C6.66669 14.9455 9.0545 17.3333 12 17.3333Z" fill="white"/>
<path d="M12 20C8.43998 20 1.33331 21.7866 1.33331 25.3333V28H22.6666V25.3333C22.6666 21.7866 15.56 20 12 20ZM22.3466 7.14663L20.1066 9.39996C21.2266 10.9733 21.2266 13.0133 20.1066 14.5866L22.3466 16.84C25.04 14.1466 25.04 10.08 22.3466 7.14663ZM26.76 2.66663L24.5866 4.83996C28.28 8.86663 28.28 14.92 24.5866 19.16L26.76 21.3333C31.96 16.1466 31.9733 8.06663 26.76 2.66663Z" fill="white"/>
</svg>
