<svg width="16" height="16" viewBox="0 0 16 16" fill="none" xmlns="http://www.w3.org/2000/svg">
<path d="M12.6667 7.33337H11.5333C11.5333 7.82671 11.4267 8.28671 11.2467 8.70004L12.0667 9.52004C12.44 8.86671 12.6667 8.12671 12.6667 7.33337ZM9.98667 7.44671C9.98667 7.40671 10 7.37337 10 7.33337V3.33337C10 2.22671 9.10667 1.33337 8 1.33337C6.89333 1.33337 6 2.22671 6 3.33337V3.45337L9.98667 7.44671ZM2.84667 2.00004L2 2.84671L6.00667 6.85337V7.33337C6.00667 8.44004 6.89333 9.33337 8 9.33337C8.14667 9.33337 8.29333 9.31337 8.43333 9.28004L9.54 10.3867C9.06667 10.6067 8.54 10.7334 8 10.7334C6.16 10.7334 4.46667 9.33337 4.46667 7.33337H3.33333C3.33333 9.60671 5.14667 11.4867 7.33333 11.8134V14H8.66667V11.8134C9.27333 11.7267 9.84667 11.5134 10.36 11.2134L13.1533 14L14 13.1534L2.84667 2.00004Z" fill="white"/>
</svg>
