<svg width="20" height="20" viewBox="0 0 20 20" fill="none" xmlns="http://www.w3.org/2000/svg">
<path d="M10 11.6667C11.3834 11.6667 12.4917 10.55 12.4917 9.16667L12.5 4.16667C12.5 2.78334 11.3834 1.66667 10 1.66667C8.61669 1.66667 7.50002 2.78334 7.50002 4.16667V9.16667C7.50002 10.55 8.61669 11.6667 10 11.6667ZM9.00002 4.08334C9.00002 3.53334 9.45002 3.08334 10 3.08334C10.55 3.08334 11 3.53334 11 4.08334L10.9917 9.25001C10.9917 9.8 10.55 10.25 10 10.25C9.45002 10.25 9.00002 9.8 9.00002 9.25001V4.08334ZM14.4167 9.16667C14.4167 11.6667 12.3 13.4167 10 13.4167C7.70002 13.4167 5.58335 11.6667 5.58335 9.16667H4.16669C4.16669 12.0083 6.43335 14.3583 9.16669 14.7667V17.5H10.8334V14.7667C13.5667 14.3667 15.8334 12.0167 15.8334 9.16667H14.4167Z" fill="#696466"/>
</svg>
