<svg width="20" height="20" viewBox="0 0 20 20" fill="none" xmlns="http://www.w3.org/2000/svg">
<path d="M10 11.6666C11.3834 11.6666 12.4917 10.55 12.4917 9.16663L12.5 4.16663C12.5 2.78329 11.3834 1.66663 10 1.66663C8.61669 1.66663 7.50002 2.78329 7.50002 4.16663V9.16663C7.50002 10.55 8.61669 11.6666 10 11.6666ZM9.00002 4.08329C9.00002 3.53329 9.45002 3.08329 10 3.08329C10.55 3.08329 11 3.53329 11 4.08329L10.9917 9.24996C10.9917 9.79996 10.55 10.25 10 10.25C9.45002 10.25 9.00002 9.79996 9.00002 9.24996V4.08329ZM14.4167 9.16663C14.4167 11.6666 12.3 13.4166 10 13.4166C7.70002 13.4166 5.58335 11.6666 5.58335 9.16663H4.16669C4.16669 12.0083 6.43335 14.3583 9.16669 14.7666V17.5H10.8334V14.7666C13.5667 14.3666 15.8334 12.0166 15.8334 9.16663H14.4167Z" fill="white"/>
</svg>

