<?xml version="1.0" encoding="utf-8"?>
<!-- Generator: Adobe Illustrator 21.0.0, SVG Export Plug-In . SVG Version: 6.00 Build 0)  -->
<svg version="1.2" baseProfile="tiny" xmlns="http://www.w3.org/2000/svg" xmlns:xlink="http://www.w3.org/1999/xlink" x="0px"
	 y="0px" viewBox="0 0 370.2 74.5" xml:space="preserve">
<g id="Isolation_Mode">
</g>
<g id="Layer_1">
</g>
<g id="_x3C_Layer_x3E_">
	<g>
		<linearGradient id="SVGID_1_" gradientUnits="userSpaceOnUse" x1="0.8056" y1="24.5188" x2="369.2898" y2="24.5188">
			<stop  offset="0.19" style="stop-color:#885CA1"/>
			<stop  offset="0.76" style="stop-color:#3F418A"/>
		</linearGradient>
		<path fill="url(#SVGID_1_)" d="M186.3,46.5h10v-42h-10V46.5z M87.3,1.5c-26.4,0-48.2,19.7-51.1,45h11.8c2.8-18.8,19.4-33,39.2-33
			s36.3,14.2,39.1,33h11.8C135.3,21.2,113.6,1.5,87.3,1.5z M166.3,36c-1.8,1-3.8,1.5-5.9,1.5c-3,0.1-5.9-1.1-8.1-3.2
			c-2.1-2.2-3-4.7-3-8.7c0-3.2,0.8-5.6,3-7.8c2.1-2.2,5-3.3,8-3.2c2,0,4.1,0.5,5.8,1.5c1.6,0.9,2.9,2.4,3.7,4l8.4-5.5
			c-1.9-3.9-7.8-10-17.9-10c-12.1,0-21,9-21,21.1c0,11.9,9.4,21.9,21.3,21.9c3.8,0,7.5-1,10.7-2.9c3.1-1.8,5.6-4.4,7.4-7.5l-8.8-5
			C169.1,33.7,167.8,35.1,166.3,36z M31.8,27.5c-1.5-1.6-3.1-3.1-5.2-3.9c-2-0.8-4.1-1.4-6.2-2c-1.8-0.4-3.6-1-5.3-1.8
			c-1.5-0.7-2.3-1.7-2.3-2.9c0-1.1,0.5-2.1,1.5-2.7c1.1-0.7,2.3-1,3.5-1c2.8-0.1,5.6,1.2,6.7,3.8l8.7-4.9c-1.5-2.6-3.9-4.3-6.5-5.7
			c-2.8-1.5-5.5-2.1-9.1-2.1c-3.9,0-7.7,1-10.9,3.4c-2.9,2.2-4.8,5.7-4.7,9.4c-0.1,2.4,1,4.7,2.5,6.5c1.4,1.7,3.2,3,5.2,3.8
			c2,0.8,4.1,1.5,6.2,2c1.8,0.5,3.6,1.1,5.3,1.9c1.5,0.7,2.3,1.7,2.3,2.9c0,2.5-2,4.3-5.9,4.3c-4.1,0-6.8-2.3-8.2-5.7l-8.7,4.9
			c3,6.2,8.6,9.7,16.8,9.7c4.1,0.1,8.4-1.2,11.8-3.9c2.7-2.2,5-6,4.8-9.7C34.3,31.4,33.6,29.5,31.8,27.5z M351.3,37.5v-33h-10v42h28
			v-9H351.3z M226.3,4.5c-6,0-11.7,1.5-15.7,5.7c-4.1,4.2-6.2,9.2-6.2,15.3s2.2,11.9,6.3,16c4.1,4.1,8.8,6,15.6,6
			c7.8,0,14.9-2.3,18.9-8l-8.9-5c-2.1,2.7-6,4-10,4c-5,0-9.5-2.8-11-8.1l-0.1-0.3h31.7c0.2-1.4,0.4-2.8,0.4-4.2
			c0.1-5.8-2-11.4-6-15.6C237.4,6.1,232.3,4.5,226.3,4.5z M215,22.5l0.1-0.7c0.5-2.5,2.2-4.9,4.2-6.3c1.9-1.4,4.4-2,7-2
			c2.4,0,5.1,0.5,7,2c2.1,1.6,3.5,3.8,3.9,6.4l0.1,0.7H215z M321.4,10.5L321,10c-3.2-4-7.7-5.5-13.7-5.5s-10.4,1.7-14,5.8
			c-3.9,4.2-6,9.2-6,15.2s2,11.7,6,15.9c3.6,4.1,8.6,6.2,14,6.1c5.8,0,10.5-1.8,13.6-5.8l0.4-0.6v5.4h9.9v-42h-9.9V10.5z
			 M317.8,34.2c-2.2,2.2-4.5,3.3-8.5,3.3c-4,0-6.2-1-8.4-3.3c-2.2-2.3-3.6-5.6-3.6-8.7s1.2-6.2,3.5-8.5c2.2-2.2,4.5-3.5,8.5-3.5
			s6,1,8.5,3.5c2.5,2.5,3.5,4.5,3.5,8.5S320,32,317.8,34.2z M249.3,13.5h13v33h10v-33h13v-9h-36V13.5z"/>
		<g>
			<path fill="#4F4F4F" stroke="#4F4F4F" stroke-width="0.3268" stroke-miterlimit="10" d="M32.9,60.7c3.3,0,5.1,1.6,5.1,4.4
				c0,2.9-1.9,4.6-5.1,4.6h-3v3.9h-2.2v-13H32.9z M29.9,67.8h2.9c2,0,3.1-0.9,3.1-2.6c0-1.7-1.1-2.5-3.1-2.5h-2.9V67.8z"/>
			<path fill="#4F4F4F" stroke="#4F4F4F" stroke-width="0.3268" stroke-miterlimit="10" d="M50.6,71.7v2h-7.8v-13H45v11H50.6z"/>
			<path fill="#4F4F4F" stroke="#4F4F4F" stroke-width="0.3268" stroke-miterlimit="10" d="M57.2,70.7L56,73.7h-2.3l5.7-13h2.2
				l5.7,13H65l-1.2-2.9H57.2z M60.5,63L58,68.8h4.9L60.5,63z"/>
			<path fill="#4F4F4F" stroke="#4F4F4F" stroke-width="0.3268" stroke-miterlimit="10" d="M76.5,62.6v11h-2.2v-11h-4.1v-2h10.4v2
				H76.5z"/>
			<path fill="#4F4F4F" stroke="#4F4F4F" stroke-width="0.3268" stroke-miterlimit="10" d="M87.3,62.6v3.7h5.9v1.9h-5.9v5.3h-2.2
				v-13h8.7l0,2H87.3z"/>
			<path fill="#4F4F4F" stroke="#4F4F4F" stroke-width="0.3268" stroke-miterlimit="10" d="M111.1,67.2c0,3.7-3,6.6-6.9,6.6
				s-6.9-2.9-6.9-6.6c0-3.7,3-6.5,6.9-6.5S111.1,63.5,111.1,67.2z M99.6,67.2c0,2.6,2.1,4.6,4.7,4.6s4.6-2,4.6-4.6s-2.1-4.6-4.6-4.6
				C101.7,62.6,99.6,64.6,99.6,67.2z"/>
			<path fill="#4F4F4F" stroke="#4F4F4F" stroke-width="0.3268" stroke-miterlimit="10" d="M122,69.7c-0.2,0-0.4,0-0.6,0h-3.1v3.9
				h-2.2v-13h5.3c3.3,0,5.2,1.6,5.2,4.4c0,2.1-1,3.5-2.7,4.2l2.9,4.3h-2.5L122,69.7z M121.4,67.8c2,0,3.2-0.9,3.2-2.6
				c0-1.7-1.2-2.5-3.2-2.5h-3.1v5.1H121.4z"/>
			<path fill="#4F4F4F" stroke="#4F4F4F" stroke-width="0.3268" stroke-miterlimit="10" d="M143.9,73.7l0-9.7l-4.1,8.3h-1.4
				l-4.1-8.3v9.7h-2.1v-13h2.6l4.3,8.6l4.3-8.6h2.6v13H143.9z"/>
		</g>
	</g>
</g>
</svg>
